<svg width="14" height="14" viewBox="0 0 14 14" fill="none" xmlns="http://www.w3.org/2000/svg">
<path d="M6.33398 6.33334H7.66732V10.3333H6.33398V6.33334ZM6.33398 3.66668H7.66732V5.00001H6.33398V3.66668ZM7.00065 13.6667C7.87613 13.6667 8.74304 13.4942 9.55187 13.1592C10.3607 12.8242 11.0956 12.3331 11.7147 11.7141C12.9649 10.4638 13.6673 8.76812 13.6673 7.00001C13.6673 5.2319 12.9649 3.53621 11.7147 2.28597C11.0956 1.66691 10.3607 1.17584 9.55188 0.840813C8.74304 0.505781 7.87613 0.333344 7.00065 0.333344C5.23254 0.333343 3.53685 1.03572 2.28661 2.28596C1.03636 3.53621 0.333985 5.2319 0.333984 7.00001C0.333984 7.87549 0.506422 8.74239 0.841453 9.55123C1.17648 10.3601 1.66755 11.095 2.28661 11.7141C2.90566 12.3331 3.64059 12.8242 4.44943 13.1592C5.25826 13.4942 6.12517 13.6667 7.00065 13.6667Z" fill="#43B45C"/>
</svg>
