<svg width="24" height="25" viewBox="0 0 24 25" fill="none" xmlns="http://www.w3.org/2000/svg">
<path fill-rule="evenodd" clip-rule="evenodd" d="M24 12.5C24 5.8736 18.6264 0.5 12 0.5C5.3736 0.5 0 5.8736 0 12.5C0 19.1264 5.3736 24.5 12 24.5C18.6264 24.5 24 19.1264 24 12.5ZM5.14752 9.95588C5.23632 7.40709 6.52752 8.43908 6.52752 8.43908C6.52752 8.43908 10.0507 10.3951 10.8331 10.8559C11.6095 11.307 11.3571 11.6031 10.9496 12.0811L10.9363 12.0967C10.5235 12.5839 10.4203 12.3031 10.4203 12.3031C10.4203 12.3031 10.3579 12.1975 9.97151 11.8207C9.58511 11.4439 9.45551 11.6479 9.45551 11.6479C9.45551 11.6479 8.85551 12.2263 8.04191 12.9919C7.27893 13.7098 7.23146 13.5814 7.10381 13.2361C7.09534 13.2132 7.08652 13.1893 7.07712 13.1647C6.92592 12.5983 7.24992 12.3367 7.24992 12.3367C7.24992 12.3367 8.29871 11.3743 8.66351 11.0959C8.91752 10.9004 8.76893 10.8421 8.34008 10.6741C8.15303 10.6008 7.91266 10.5067 7.62911 10.3711C6.13632 9.59828 6.60912 13.6543 6.97392 14.9575C7.40249 16.3801 7.87863 15.9901 8.80782 15.2292C9.00257 15.0697 9.21722 14.8939 9.45551 14.7151C11.5291 13.0495 15.3211 9.37268 16.5235 8.19668C17.7259 7.02069 18.2827 7.49589 18.6619 8.54228C19.1635 10.2223 19.2427 14.1655 19.2475 15.5431C19.2211 17.2783 18.7171 17.2831 17.8339 17.0263C17.0007 16.7927 15.1249 15.5748 14.0741 14.8925C13.7749 14.6982 13.5426 14.5474 13.4203 14.4751C12.9231 14.1798 13.0171 14.0652 13.2936 13.7281C13.3228 13.6925 13.354 13.6545 13.3867 13.6135C13.8235 13.0759 14.0083 13.4071 14.0083 13.4071C14.0083 13.4071 14.9659 14.1031 15.9739 14.7511C17.3083 15.6775 17.6011 15.1591 17.6635 14.4751C17.8453 12.4734 17.6485 11.5858 17.4515 10.697C17.43 10.6001 17.4085 10.5031 17.3875 10.4047C16.9501 8.47622 15.1648 10.4088 13.8223 11.862C13.5075 12.2029 13.2169 12.5174 12.9739 12.7495C11.6947 13.9711 8.67311 16.7551 7.83791 17.3719C6.87792 18.0511 6.36192 18.2599 5.97552 17.5783C5.06112 15.7663 5.05872 11.9311 5.14752 9.95588Z" fill="white"/>
</svg>
